<mxfile host="app.diagrams.net" modified="2024-05-05T14:15:48.078Z" agent="Mozilla/5.0 (Windows NT 10.0; Win64; x64) AppleWebKit/537.36 (KHTML, like Gecko) Chrome/124.0.0.0 Safari/537.36" etag="CisvGVHWxr9eWWdf-8yb" version="24.2.7" type="device">
  <diagram name="Страница — 1" id="y56YoYrBCxLs7feVch3i">
    <mxGraphModel dx="3617" dy="1297" grid="1" gridSize="10" guides="1" tooltips="1" connect="1" arrows="1" fold="1" page="1" pageScale="1" pageWidth="827" pageHeight="1169" math="0" shadow="0">
      <root>
        <mxCell id="0" />
        <mxCell id="1" parent="0" />
        <mxCell id="BNSsRo8BUzBF0QC5Q9ML-11" style="edgeStyle=orthogonalEdgeStyle;rounded=0;orthogonalLoop=1;jettySize=auto;html=1;exitX=0.5;exitY=1;exitDx=0;exitDy=0;entryX=0.5;entryY=0;entryDx=0;entryDy=0;" edge="1" parent="1" source="BNSsRo8BUzBF0QC5Q9ML-1" target="BNSsRo8BUzBF0QC5Q9ML-2">
          <mxGeometry relative="1" as="geometry" />
        </mxCell>
        <mxCell id="BNSsRo8BUzBF0QC5Q9ML-1" value="Начало" style="rounded=1;whiteSpace=wrap;html=1;arcSize=50;" vertex="1" parent="1">
          <mxGeometry x="354" y="20" width="120" height="60" as="geometry" />
        </mxCell>
        <mxCell id="BNSsRo8BUzBF0QC5Q9ML-10" style="edgeStyle=orthogonalEdgeStyle;rounded=0;orthogonalLoop=1;jettySize=auto;html=1;entryX=0.5;entryY=0;entryDx=0;entryDy=0;" edge="1" parent="1" source="BNSsRo8BUzBF0QC5Q9ML-2" target="BNSsRo8BUzBF0QC5Q9ML-3">
          <mxGeometry relative="1" as="geometry" />
        </mxCell>
        <mxCell id="BNSsRo8BUzBF0QC5Q9ML-2" value="Ввод текста" style="shape=parallelogram;perimeter=parallelogramPerimeter;whiteSpace=wrap;html=1;fixedSize=1;" vertex="1" parent="1">
          <mxGeometry x="354" y="90" width="120" height="40" as="geometry" />
        </mxCell>
        <mxCell id="BNSsRo8BUzBF0QC5Q9ML-7" value="" style="edgeStyle=orthogonalEdgeStyle;rounded=0;orthogonalLoop=1;jettySize=auto;html=1;entryX=0.5;entryY=0;entryDx=0;entryDy=0;" edge="1" parent="1" source="BNSsRo8BUzBF0QC5Q9ML-3" target="BNSsRo8BUzBF0QC5Q9ML-4">
          <mxGeometry relative="1" as="geometry" />
        </mxCell>
        <mxCell id="BNSsRo8BUzBF0QC5Q9ML-3" value="Ввод ключа" style="shape=parallelogram;perimeter=parallelogramPerimeter;whiteSpace=wrap;html=1;fixedSize=1;" vertex="1" parent="1">
          <mxGeometry x="354" y="160" width="120" height="40" as="geometry" />
        </mxCell>
        <mxCell id="BNSsRo8BUzBF0QC5Q9ML-5" style="edgeStyle=orthogonalEdgeStyle;rounded=0;orthogonalLoop=1;jettySize=auto;html=1;entryX=0;entryY=0.5;entryDx=0;entryDy=0;" edge="1" parent="1" source="BNSsRo8BUzBF0QC5Q9ML-4" target="BNSsRo8BUzBF0QC5Q9ML-3">
          <mxGeometry relative="1" as="geometry">
            <Array as="points">
              <mxPoint x="330" y="260" />
              <mxPoint x="330" y="180" />
            </Array>
          </mxGeometry>
        </mxCell>
        <mxCell id="BNSsRo8BUzBF0QC5Q9ML-16" style="edgeStyle=orthogonalEdgeStyle;rounded=0;orthogonalLoop=1;jettySize=auto;html=1;exitX=0.5;exitY=1;exitDx=0;exitDy=0;entryX=0.5;entryY=0;entryDx=0;entryDy=0;" edge="1" parent="1" source="BNSsRo8BUzBF0QC5Q9ML-4" target="BNSsRo8BUzBF0QC5Q9ML-12">
          <mxGeometry relative="1" as="geometry" />
        </mxCell>
        <mxCell id="BNSsRo8BUzBF0QC5Q9ML-4" value="Введён корректный ключ?" style="rhombus;whiteSpace=wrap;html=1;" vertex="1" parent="1">
          <mxGeometry x="374" y="220" width="80" height="80" as="geometry" />
        </mxCell>
        <mxCell id="BNSsRo8BUzBF0QC5Q9ML-6" value="Нет" style="text;html=1;align=center;verticalAlign=middle;whiteSpace=wrap;rounded=0;" vertex="1" parent="1">
          <mxGeometry x="330" y="230" width="60" height="30" as="geometry" />
        </mxCell>
        <mxCell id="BNSsRo8BUzBF0QC5Q9ML-15" style="edgeStyle=orthogonalEdgeStyle;rounded=0;orthogonalLoop=1;jettySize=auto;html=1;entryX=0.5;entryY=0;entryDx=0;entryDy=0;" edge="1" parent="1" source="BNSsRo8BUzBF0QC5Q9ML-12" target="BNSsRo8BUzBF0QC5Q9ML-14">
          <mxGeometry relative="1" as="geometry" />
        </mxCell>
        <mxCell id="BNSsRo8BUzBF0QC5Q9ML-12" value="Разбиваем текст на блоки длиной 60 символов" style="rounded=0;whiteSpace=wrap;html=1;" vertex="1" parent="1">
          <mxGeometry x="354" y="310" width="120" height="60" as="geometry" />
        </mxCell>
        <mxCell id="BNSsRo8BUzBF0QC5Q9ML-33" style="edgeStyle=orthogonalEdgeStyle;rounded=0;orthogonalLoop=1;jettySize=auto;html=1;" edge="1" parent="1" source="BNSsRo8BUzBF0QC5Q9ML-13" target="BNSsRo8BUzBF0QC5Q9ML-24">
          <mxGeometry relative="1" as="geometry" />
        </mxCell>
        <mxCell id="BNSsRo8BUzBF0QC5Q9ML-13" value="Записываем в таблицу на такую же позицию букву из текста" style="rounded=0;whiteSpace=wrap;html=1;" vertex="1" parent="1">
          <mxGeometry x="210" y="760" width="145" height="80" as="geometry" />
        </mxCell>
        <mxCell id="BNSsRo8BUzBF0QC5Q9ML-35" style="edgeStyle=orthogonalEdgeStyle;rounded=0;orthogonalLoop=1;jettySize=auto;html=1;exitX=0.5;exitY=1;exitDx=0;exitDy=0;entryX=0.5;entryY=0;entryDx=0;entryDy=0;" edge="1" parent="1" source="BNSsRo8BUzBF0QC5Q9ML-14" target="BNSsRo8BUzBF0QC5Q9ML-18">
          <mxGeometry relative="1" as="geometry" />
        </mxCell>
        <mxCell id="BNSsRo8BUzBF0QC5Q9ML-14" value="Начало цикла&amp;nbsp;&lt;div&gt;перебора блоков&lt;/div&gt;" style="shape=loopLimit;whiteSpace=wrap;html=1;" vertex="1" parent="1">
          <mxGeometry x="80" y="390" width="100" height="80" as="geometry" />
        </mxCell>
        <mxCell id="BNSsRo8BUzBF0QC5Q9ML-17" value="Да" style="text;html=1;align=center;verticalAlign=middle;whiteSpace=wrap;rounded=0;" vertex="1" parent="1">
          <mxGeometry x="414" y="280" width="60" height="30" as="geometry" />
        </mxCell>
        <mxCell id="BNSsRo8BUzBF0QC5Q9ML-36" style="edgeStyle=orthogonalEdgeStyle;rounded=0;orthogonalLoop=1;jettySize=auto;html=1;exitX=0.5;exitY=1;exitDx=0;exitDy=0;entryX=0.5;entryY=0;entryDx=0;entryDy=0;" edge="1" parent="1" source="BNSsRo8BUzBF0QC5Q9ML-18" target="BNSsRo8BUzBF0QC5Q9ML-19">
          <mxGeometry relative="1" as="geometry" />
        </mxCell>
        <mxCell id="BNSsRo8BUzBF0QC5Q9ML-18" value="Начало цикла&amp;nbsp;&lt;div&gt;перебора позиций ключевой таблицы&lt;/div&gt;" style="shape=loopLimit;whiteSpace=wrap;html=1;" vertex="1" parent="1">
          <mxGeometry x="80" y="480" width="100" height="80" as="geometry" />
        </mxCell>
        <mxCell id="BNSsRo8BUzBF0QC5Q9ML-22" style="edgeStyle=orthogonalEdgeStyle;rounded=0;orthogonalLoop=1;jettySize=auto;html=1;" edge="1" parent="1" source="BNSsRo8BUzBF0QC5Q9ML-19" target="BNSsRo8BUzBF0QC5Q9ML-20">
          <mxGeometry relative="1" as="geometry" />
        </mxCell>
        <mxCell id="BNSsRo8BUzBF0QC5Q9ML-23" style="edgeStyle=orthogonalEdgeStyle;rounded=0;orthogonalLoop=1;jettySize=auto;html=1;entryX=0;entryY=0.5;entryDx=0;entryDy=0;" edge="1" parent="1" source="BNSsRo8BUzBF0QC5Q9ML-19" target="BNSsRo8BUzBF0QC5Q9ML-18">
          <mxGeometry relative="1" as="geometry">
            <Array as="points">
              <mxPoint x="60" y="610" />
              <mxPoint x="60" y="520" />
            </Array>
          </mxGeometry>
        </mxCell>
        <mxCell id="BNSsRo8BUzBF0QC5Q9ML-19" value="Ключ = 1?" style="rhombus;whiteSpace=wrap;html=1;" vertex="1" parent="1">
          <mxGeometry x="90" y="570" width="80" height="80" as="geometry" />
        </mxCell>
        <mxCell id="BNSsRo8BUzBF0QC5Q9ML-26" style="edgeStyle=orthogonalEdgeStyle;rounded=0;orthogonalLoop=1;jettySize=auto;html=1;entryX=0.5;entryY=0;entryDx=0;entryDy=0;" edge="1" parent="1" source="BNSsRo8BUzBF0QC5Q9ML-20" target="BNSsRo8BUzBF0QC5Q9ML-13">
          <mxGeometry relative="1" as="geometry">
            <Array as="points">
              <mxPoint x="283" y="715" />
              <mxPoint x="283" y="750" />
            </Array>
          </mxGeometry>
        </mxCell>
        <mxCell id="BNSsRo8BUzBF0QC5Q9ML-27" style="edgeStyle=orthogonalEdgeStyle;rounded=0;orthogonalLoop=1;jettySize=auto;html=1;entryX=0.5;entryY=0;entryDx=0;entryDy=0;" edge="1" parent="1" source="BNSsRo8BUzBF0QC5Q9ML-20" target="BNSsRo8BUzBF0QC5Q9ML-21">
          <mxGeometry relative="1" as="geometry">
            <Array as="points">
              <mxPoint x="20" y="715" />
            </Array>
          </mxGeometry>
        </mxCell>
        <mxCell id="BNSsRo8BUzBF0QC5Q9ML-20" value="В тексте ещё есть&lt;div&gt;&amp;nbsp;незаписанные символы&lt;/div&gt;" style="rhombus;whiteSpace=wrap;html=1;" vertex="1" parent="1">
          <mxGeometry x="27.5" y="670" width="205" height="90" as="geometry" />
        </mxCell>
        <mxCell id="BNSsRo8BUzBF0QC5Q9ML-32" style="edgeStyle=orthogonalEdgeStyle;rounded=0;orthogonalLoop=1;jettySize=auto;html=1;" edge="1" parent="1" source="BNSsRo8BUzBF0QC5Q9ML-21" target="BNSsRo8BUzBF0QC5Q9ML-24">
          <mxGeometry relative="1" as="geometry">
            <Array as="points">
              <mxPoint x="20" y="860" />
              <mxPoint x="145" y="860" />
            </Array>
          </mxGeometry>
        </mxCell>
        <mxCell id="BNSsRo8BUzBF0QC5Q9ML-21" value="Записываем в таблицу на такую же позицию случайную букву из алфавита" style="rounded=0;whiteSpace=wrap;html=1;" vertex="1" parent="1">
          <mxGeometry x="-50" y="780" width="140" height="60" as="geometry" />
        </mxCell>
        <mxCell id="BNSsRo8BUzBF0QC5Q9ML-25" style="edgeStyle=orthogonalEdgeStyle;rounded=0;orthogonalLoop=1;jettySize=auto;html=1;entryX=0;entryY=0.5;entryDx=0;entryDy=0;" edge="1" parent="1" source="BNSsRo8BUzBF0QC5Q9ML-24" target="BNSsRo8BUzBF0QC5Q9ML-18">
          <mxGeometry relative="1" as="geometry">
            <Array as="points">
              <mxPoint x="-60" y="925" />
              <mxPoint x="-60" y="520" />
            </Array>
          </mxGeometry>
        </mxCell>
        <mxCell id="BNSsRo8BUzBF0QC5Q9ML-39" value="" style="edgeStyle=orthogonalEdgeStyle;rounded=0;orthogonalLoop=1;jettySize=auto;html=1;entryX=0.5;entryY=0;entryDx=0;entryDy=0;" edge="1" parent="1" source="BNSsRo8BUzBF0QC5Q9ML-24" target="BNSsRo8BUzBF0QC5Q9ML-41">
          <mxGeometry relative="1" as="geometry" />
        </mxCell>
        <mxCell id="BNSsRo8BUzBF0QC5Q9ML-24" value="Это последний элемент таблицы-ключа?" style="rhombus;whiteSpace=wrap;html=1;" vertex="1" parent="1">
          <mxGeometry x="80" y="880" width="130" height="90" as="geometry" />
        </mxCell>
        <mxCell id="BNSsRo8BUzBF0QC5Q9ML-28" value="Нет" style="text;html=1;align=center;verticalAlign=middle;whiteSpace=wrap;rounded=0;" vertex="1" parent="1">
          <mxGeometry x="-20" y="690" width="60" height="30" as="geometry" />
        </mxCell>
        <mxCell id="BNSsRo8BUzBF0QC5Q9ML-29" value="Да" style="text;html=1;align=center;verticalAlign=middle;whiteSpace=wrap;rounded=0;" vertex="1" parent="1">
          <mxGeometry x="220" y="690" width="60" height="30" as="geometry" />
        </mxCell>
        <mxCell id="BNSsRo8BUzBF0QC5Q9ML-30" value="Да" style="text;html=1;align=center;verticalAlign=middle;whiteSpace=wrap;rounded=0;" vertex="1" parent="1">
          <mxGeometry x="120" y="640" width="60" height="30" as="geometry" />
        </mxCell>
        <mxCell id="BNSsRo8BUzBF0QC5Q9ML-31" value="Нет" style="text;html=1;align=center;verticalAlign=middle;whiteSpace=wrap;rounded=0;" vertex="1" parent="1">
          <mxGeometry x="50" y="580" width="60" height="30" as="geometry" />
        </mxCell>
        <mxCell id="BNSsRo8BUzBF0QC5Q9ML-34" value="Нет" style="text;html=1;align=center;verticalAlign=middle;whiteSpace=wrap;rounded=0;" vertex="1" parent="1">
          <mxGeometry x="40" y="900" width="60" height="30" as="geometry" />
        </mxCell>
        <mxCell id="BNSsRo8BUzBF0QC5Q9ML-38" style="edgeStyle=orthogonalEdgeStyle;rounded=0;orthogonalLoop=1;jettySize=auto;html=1;entryX=0;entryY=0.5;entryDx=0;entryDy=0;" edge="1" parent="1" source="BNSsRo8BUzBF0QC5Q9ML-37" target="BNSsRo8BUzBF0QC5Q9ML-14">
          <mxGeometry relative="1" as="geometry">
            <Array as="points">
              <mxPoint x="-70" y="1100" />
              <mxPoint x="-70" y="430" />
            </Array>
          </mxGeometry>
        </mxCell>
        <mxCell id="BNSsRo8BUzBF0QC5Q9ML-37" value="Переворачиваем решётку согласно ключу" style="rounded=0;whiteSpace=wrap;html=1;" vertex="1" parent="1">
          <mxGeometry x="85" y="1080" width="120" height="60" as="geometry" />
        </mxCell>
        <mxCell id="BNSsRo8BUzBF0QC5Q9ML-40" value="Да" style="text;html=1;align=center;verticalAlign=middle;whiteSpace=wrap;rounded=0;" vertex="1" parent="1">
          <mxGeometry x="145" y="960" width="60" height="30" as="geometry" />
        </mxCell>
        <mxCell id="BNSsRo8BUzBF0QC5Q9ML-42" style="edgeStyle=orthogonalEdgeStyle;rounded=0;orthogonalLoop=1;jettySize=auto;html=1;exitX=0.5;exitY=1;exitDx=0;exitDy=0;entryX=0.5;entryY=0;entryDx=0;entryDy=0;" edge="1" parent="1" source="BNSsRo8BUzBF0QC5Q9ML-41" target="BNSsRo8BUzBF0QC5Q9ML-37">
          <mxGeometry relative="1" as="geometry" />
        </mxCell>
        <mxCell id="BNSsRo8BUzBF0QC5Q9ML-45" value="" style="edgeStyle=orthogonalEdgeStyle;rounded=0;orthogonalLoop=1;jettySize=auto;html=1;" edge="1" parent="1" source="BNSsRo8BUzBF0QC5Q9ML-41" target="BNSsRo8BUzBF0QC5Q9ML-44">
          <mxGeometry relative="1" as="geometry" />
        </mxCell>
        <mxCell id="BNSsRo8BUzBF0QC5Q9ML-41" value="Это последнее&lt;div&gt;&amp;nbsp;положение решётки?&lt;/div&gt;" style="rhombus;whiteSpace=wrap;html=1;" vertex="1" parent="1">
          <mxGeometry x="65" y="980" width="160" height="80" as="geometry" />
        </mxCell>
        <mxCell id="BNSsRo8BUzBF0QC5Q9ML-43" value="нет" style="text;html=1;align=center;verticalAlign=middle;whiteSpace=wrap;rounded=0;" vertex="1" parent="1">
          <mxGeometry x="150" y="1050" width="60" height="30" as="geometry" />
        </mxCell>
        <mxCell id="BNSsRo8BUzBF0QC5Q9ML-78" style="edgeStyle=orthogonalEdgeStyle;rounded=0;orthogonalLoop=1;jettySize=auto;html=1;entryX=0.5;entryY=0;entryDx=0;entryDy=0;" edge="1" parent="1" source="BNSsRo8BUzBF0QC5Q9ML-44" target="BNSsRo8BUzBF0QC5Q9ML-50">
          <mxGeometry relative="1" as="geometry">
            <Array as="points">
              <mxPoint x="460" y="1020" />
              <mxPoint x="460" y="380" />
              <mxPoint x="700" y="380" />
            </Array>
          </mxGeometry>
        </mxCell>
        <mxCell id="BNSsRo8BUzBF0QC5Q9ML-44" value="Выводим результат&amp;nbsp;&lt;div&gt;шифрования&lt;/div&gt;" style="rounded=0;whiteSpace=wrap;html=1;" vertex="1" parent="1">
          <mxGeometry x="260" y="990" width="120" height="60" as="geometry" />
        </mxCell>
        <mxCell id="BNSsRo8BUzBF0QC5Q9ML-46" value="Да" style="text;html=1;align=center;verticalAlign=middle;whiteSpace=wrap;rounded=0;" vertex="1" parent="1">
          <mxGeometry x="210" y="1020" width="60" height="30" as="geometry" />
        </mxCell>
        <mxCell id="BNSsRo8BUzBF0QC5Q9ML-49" style="edgeStyle=orthogonalEdgeStyle;rounded=0;orthogonalLoop=1;jettySize=auto;html=1;exitX=0.5;exitY=1;exitDx=0;exitDy=0;entryX=0.5;entryY=0;entryDx=0;entryDy=0;" edge="1" parent="1" source="BNSsRo8BUzBF0QC5Q9ML-50" target="BNSsRo8BUzBF0QC5Q9ML-52">
          <mxGeometry relative="1" as="geometry" />
        </mxCell>
        <mxCell id="BNSsRo8BUzBF0QC5Q9ML-50" value="Начало цикла&amp;nbsp;&lt;div&gt;перебора блоков&lt;/div&gt;" style="shape=loopLimit;whiteSpace=wrap;html=1;" vertex="1" parent="1">
          <mxGeometry x="650" y="400" width="100" height="80" as="geometry" />
        </mxCell>
        <mxCell id="BNSsRo8BUzBF0QC5Q9ML-51" style="edgeStyle=orthogonalEdgeStyle;rounded=0;orthogonalLoop=1;jettySize=auto;html=1;exitX=0.5;exitY=1;exitDx=0;exitDy=0;entryX=0.5;entryY=0;entryDx=0;entryDy=0;" edge="1" parent="1" source="BNSsRo8BUzBF0QC5Q9ML-52" target="BNSsRo8BUzBF0QC5Q9ML-55">
          <mxGeometry relative="1" as="geometry" />
        </mxCell>
        <mxCell id="BNSsRo8BUzBF0QC5Q9ML-52" value="Начало цикла&amp;nbsp;&lt;div&gt;перебора позиций ключевой таблицы&lt;/div&gt;" style="shape=loopLimit;whiteSpace=wrap;html=1;" vertex="1" parent="1">
          <mxGeometry x="650" y="490" width="100" height="80" as="geometry" />
        </mxCell>
        <mxCell id="BNSsRo8BUzBF0QC5Q9ML-53" style="edgeStyle=orthogonalEdgeStyle;rounded=0;orthogonalLoop=1;jettySize=auto;html=1;" edge="1" parent="1" source="BNSsRo8BUzBF0QC5Q9ML-55" target="BNSsRo8BUzBF0QC5Q9ML-60">
          <mxGeometry relative="1" as="geometry">
            <mxPoint x="700" y="680" as="targetPoint" />
            <Array as="points" />
          </mxGeometry>
        </mxCell>
        <mxCell id="BNSsRo8BUzBF0QC5Q9ML-54" style="edgeStyle=orthogonalEdgeStyle;rounded=0;orthogonalLoop=1;jettySize=auto;html=1;entryX=0;entryY=0.5;entryDx=0;entryDy=0;" edge="1" parent="1" source="BNSsRo8BUzBF0QC5Q9ML-55" target="BNSsRo8BUzBF0QC5Q9ML-52">
          <mxGeometry relative="1" as="geometry">
            <Array as="points">
              <mxPoint x="630" y="620" />
              <mxPoint x="630" y="530" />
            </Array>
          </mxGeometry>
        </mxCell>
        <mxCell id="BNSsRo8BUzBF0QC5Q9ML-55" value="Ключ = 1?" style="rhombus;whiteSpace=wrap;html=1;" vertex="1" parent="1">
          <mxGeometry x="660" y="580" width="80" height="80" as="geometry" />
        </mxCell>
        <mxCell id="BNSsRo8BUzBF0QC5Q9ML-79" style="edgeStyle=orthogonalEdgeStyle;rounded=0;orthogonalLoop=1;jettySize=auto;html=1;" edge="1" parent="1" source="BNSsRo8BUzBF0QC5Q9ML-60" target="BNSsRo8BUzBF0QC5Q9ML-63">
          <mxGeometry relative="1" as="geometry">
            <Array as="points">
              <mxPoint x="705" y="760" />
              <mxPoint x="705" y="760" />
            </Array>
          </mxGeometry>
        </mxCell>
        <mxCell id="BNSsRo8BUzBF0QC5Q9ML-60" value="Записываем в результат букву, стоящую на этой позиции в шифртексте" style="rounded=0;whiteSpace=wrap;html=1;" vertex="1" parent="1">
          <mxGeometry x="630" y="685" width="140" height="60" as="geometry" />
        </mxCell>
        <mxCell id="BNSsRo8BUzBF0QC5Q9ML-61" style="edgeStyle=orthogonalEdgeStyle;rounded=0;orthogonalLoop=1;jettySize=auto;html=1;entryX=0;entryY=0.5;entryDx=0;entryDy=0;" edge="1" parent="1" source="BNSsRo8BUzBF0QC5Q9ML-63" target="BNSsRo8BUzBF0QC5Q9ML-52">
          <mxGeometry relative="1" as="geometry">
            <Array as="points">
              <mxPoint x="705" y="910" />
              <mxPoint x="510" y="910" />
              <mxPoint x="510" y="530" />
            </Array>
          </mxGeometry>
        </mxCell>
        <mxCell id="BNSsRo8BUzBF0QC5Q9ML-62" value="" style="edgeStyle=orthogonalEdgeStyle;rounded=0;orthogonalLoop=1;jettySize=auto;html=1;entryX=0.5;entryY=0;entryDx=0;entryDy=0;" edge="1" parent="1" source="BNSsRo8BUzBF0QC5Q9ML-63" target="BNSsRo8BUzBF0QC5Q9ML-74">
          <mxGeometry relative="1" as="geometry" />
        </mxCell>
        <mxCell id="BNSsRo8BUzBF0QC5Q9ML-63" value="Это последний элемент таблицы-ключа?" style="rhombus;whiteSpace=wrap;html=1;" vertex="1" parent="1">
          <mxGeometry x="640" y="770" width="130" height="90" as="geometry" />
        </mxCell>
        <mxCell id="BNSsRo8BUzBF0QC5Q9ML-66" value="Да" style="text;html=1;align=center;verticalAlign=middle;whiteSpace=wrap;rounded=0;" vertex="1" parent="1">
          <mxGeometry x="690" y="655" width="60" height="30" as="geometry" />
        </mxCell>
        <mxCell id="BNSsRo8BUzBF0QC5Q9ML-67" value="Нет" style="text;html=1;align=center;verticalAlign=middle;whiteSpace=wrap;rounded=0;" vertex="1" parent="1">
          <mxGeometry x="620" y="590" width="60" height="30" as="geometry" />
        </mxCell>
        <mxCell id="BNSsRo8BUzBF0QC5Q9ML-68" value="Нет" style="text;html=1;align=center;verticalAlign=middle;whiteSpace=wrap;rounded=0;" vertex="1" parent="1">
          <mxGeometry x="600" y="790" width="60" height="30" as="geometry" />
        </mxCell>
        <mxCell id="BNSsRo8BUzBF0QC5Q9ML-69" style="edgeStyle=orthogonalEdgeStyle;rounded=0;orthogonalLoop=1;jettySize=auto;html=1;entryX=0;entryY=0.5;entryDx=0;entryDy=0;" edge="1" parent="1" source="BNSsRo8BUzBF0QC5Q9ML-70" target="BNSsRo8BUzBF0QC5Q9ML-50">
          <mxGeometry relative="1" as="geometry">
            <Array as="points">
              <mxPoint x="500" y="1000" />
              <mxPoint x="500" y="440" />
            </Array>
          </mxGeometry>
        </mxCell>
        <mxCell id="BNSsRo8BUzBF0QC5Q9ML-70" value="Переворачиваем решётку согласно ключу" style="rounded=0;whiteSpace=wrap;html=1;" vertex="1" parent="1">
          <mxGeometry x="645" y="970" width="120" height="60" as="geometry" />
        </mxCell>
        <mxCell id="BNSsRo8BUzBF0QC5Q9ML-71" value="Да" style="text;html=1;align=center;verticalAlign=middle;whiteSpace=wrap;rounded=0;" vertex="1" parent="1">
          <mxGeometry x="705" y="850" width="60" height="30" as="geometry" />
        </mxCell>
        <mxCell id="BNSsRo8BUzBF0QC5Q9ML-72" style="edgeStyle=orthogonalEdgeStyle;rounded=0;orthogonalLoop=1;jettySize=auto;html=1;exitX=0.5;exitY=1;exitDx=0;exitDy=0;entryX=0.5;entryY=0;entryDx=0;entryDy=0;" edge="1" parent="1" source="BNSsRo8BUzBF0QC5Q9ML-74" target="BNSsRo8BUzBF0QC5Q9ML-70">
          <mxGeometry relative="1" as="geometry" />
        </mxCell>
        <mxCell id="BNSsRo8BUzBF0QC5Q9ML-73" value="" style="edgeStyle=orthogonalEdgeStyle;rounded=0;orthogonalLoop=1;jettySize=auto;html=1;" edge="1" parent="1" source="BNSsRo8BUzBF0QC5Q9ML-74" target="BNSsRo8BUzBF0QC5Q9ML-76">
          <mxGeometry relative="1" as="geometry" />
        </mxCell>
        <mxCell id="BNSsRo8BUzBF0QC5Q9ML-74" value="Это последнее&lt;div&gt;&amp;nbsp;положение решётки?&lt;/div&gt;" style="rhombus;whiteSpace=wrap;html=1;" vertex="1" parent="1">
          <mxGeometry x="625" y="870" width="160" height="80" as="geometry" />
        </mxCell>
        <mxCell id="BNSsRo8BUzBF0QC5Q9ML-75" value="нет" style="text;html=1;align=center;verticalAlign=middle;whiteSpace=wrap;rounded=0;" vertex="1" parent="1">
          <mxGeometry x="710" y="940" width="60" height="30" as="geometry" />
        </mxCell>
        <mxCell id="BNSsRo8BUzBF0QC5Q9ML-81" style="edgeStyle=orthogonalEdgeStyle;rounded=0;orthogonalLoop=1;jettySize=auto;html=1;entryX=0.5;entryY=0;entryDx=0;entryDy=0;" edge="1" parent="1" source="BNSsRo8BUzBF0QC5Q9ML-76" target="BNSsRo8BUzBF0QC5Q9ML-80">
          <mxGeometry relative="1" as="geometry">
            <Array as="points">
              <mxPoint x="880" y="1060" />
              <mxPoint x="474" y="1060" />
            </Array>
          </mxGeometry>
        </mxCell>
        <mxCell id="BNSsRo8BUzBF0QC5Q9ML-76" value="Выводим результат&amp;nbsp;&lt;div&gt;расшифрования&lt;/div&gt;" style="rounded=0;whiteSpace=wrap;html=1;" vertex="1" parent="1">
          <mxGeometry x="820" y="880" width="120" height="60" as="geometry" />
        </mxCell>
        <mxCell id="BNSsRo8BUzBF0QC5Q9ML-77" value="Да" style="text;html=1;align=center;verticalAlign=middle;whiteSpace=wrap;rounded=0;" vertex="1" parent="1">
          <mxGeometry x="770" y="910" width="60" height="30" as="geometry" />
        </mxCell>
        <mxCell id="BNSsRo8BUzBF0QC5Q9ML-80" value="Конец" style="rounded=1;whiteSpace=wrap;html=1;arcSize=50;" vertex="1" parent="1">
          <mxGeometry x="414" y="1100" width="120" height="60" as="geometry" />
        </mxCell>
      </root>
    </mxGraphModel>
  </diagram>
</mxfile>
